<svg t="1717150836285" class="icon" viewBox="0 0 1024 1024" version="1.1" xmlns="http://www.w3.org/2000/svg" p-id="1460" width="64" height="64"><path d="M510.025 603.246c75.052 0 134.304-59.253 134.304-134.304v-264.66c0-75.053-59.253-134.304-134.304-134.304s-130.354 59.252-130.354 134.304v264.66c0 75.052 55.301 134.304 130.354 134.304zM438.923 204.281c0-43.451 31.601-75.053 71.103-75.053 43.451 0 75.052 31.601 75.052 75.053v264.66c0 43.451-31.601 75.052-75.052 75.052-39.502 0-71.103-31.601-71.103-75.052v-264.66zM201.914 492.642c11.85 138.255 126.404 252.809 264.66 272.56 7.9 3.95 7.9 7.9 7.9 11.85v98.753c0 19.75 15.801 35.551 35.551 35.551s35.551-15.801 35.551-35.551v-98.753c0-3.95 0-7.9 11.85-11.85 138.255-19.75 252.809-134.304 264.66-272.56 0-23.701-11.85-35.551-31.601-35.551-19.75 0-27.652 15.801-27.652 23.701-11.85 130.354-118.505 225.158-252.809 225.158v0 0c-130.354 0-237.008-94.803-248.859-225.158 0-7.9-11.85-23.701-27.652-23.701-19.75 0-31.601 11.85-31.601 35.551z" p-id="1461"></path></svg>