<?xml version="1.0" standalone="no"?><!DOCTYPE svg PUBLIC "-//W3C//DTD SVG 1.1//EN" "http://www.w3.org/Graphics/SVG/1.1/DTD/svg11.dtd"><svg t="1712480941850" class="icon" viewBox="0 0 1024 1024" version="1.1" xmlns="http://www.w3.org/2000/svg" p-id="12588" xmlns:xlink="http://www.w3.org/1999/xlink" width="200" height="200"><path d="M267.432659 503.055059c0-161.057129 65.614306-310.181647 170.00207-417.551059L353.924518 1.987765C246.555106 112.338824 171.995859 258.487718 154.099953 419.538824c-2.981647 26.846871-5.963294 53.687718-5.963294 83.516235 0 29.822494 2.981647 56.663341 5.963294 83.510212 20.877553 170.002071 98.424471 322.108235 217.720471 435.440941l86.497882-83.504188c-119.302024-110.351059-190.885647-262.463247-190.885647-435.446965z" p-id="12589"></path><path d="M535.8592 503.055059c0-86.497882 35.791812-167.020424 92.461176-226.671435L541.816471 192.873412C464.2816 273.395953 416.557176 383.753035 416.557176 503.055059c0 131.228612 56.669365 250.530635 146.142871 331.053176l86.497882-83.504188C577.614306 690.953035 535.853176 601.473506 535.853176 503.055059z m193.867294-122.283671c-29.828518 32.804141-47.724424 74.559247-47.724423 122.277647 0 59.651012 29.828518 110.351059 71.583623 143.161224l122.277647-119.296-146.136847-146.142871z" p-id="12590"></path></svg>